# xmcd CD database file
#
# Track frame offsets:
#	150
#	13106
#	25085
#	45788
#	66117
#	81569
#	100961
#	117902
#	132866
#	144723
#	159672
#	180367
#
# Disc length: 2585 seconds
#
# Revision: 0
# Processed by: cddbd v1.5.1PL2 Copyright (c) Steve Scherf et al.
# Submitted via: CDex 1.51
#
DISCID=990a170c
DTITLE=Johnny Cash - American V
DYEAR=2006
DGENRE=Country
TTITLE0=Help Me
TTITLE1=God's Gonna Cut You Down
TTITLE2=Like The 309 (the last song Johnny wrote and recorded)
TTITLE3=If You Could Read My Mind
TTITLE4=Further On Up the Road
TTITLE5=The Evening Train
TTITLE6=I Came To Believe
TTITLE7=Love's Been Good To Me
TTITLE8=A Legend In My Time
TTITLE9=Rose Of My Heart
TTITLE10=Four Strong Winds
TTITLE11=I'm Free From The Chain Gang Now
EXTD=YEAR: 2006
EXTT0=
EXTT1=
EXTT2=
EXTT3=
EXTT4=
EXTT5=
EXTT6=
EXTT7=
EXTT8=
EXTT9=
EXTT10=
EXTT11=
PLAYORDER=
